<svg xmlns="http://www.w3.org/2000/svg" xmlns:xlink="http://www.w3.org/1999/xlink" width="1080" zoomAndPan="magnify" viewBox="0 0 810 809.999993" height="1080" preserveAspectRatio="xMidYMid meet" version="1.0"><defs><clipPath id="61da22f6fe"><path d="M 141.214844 126.214844 L 668.464844 126.214844 L 668.464844 653.464844 L 141.214844 653.464844 Z M 141.214844 126.214844 " clip-rule="nonzero"/></clipPath></defs><g clip-path="url(#61da22f6fe)"><path fill="#131112" d="M 542.402344 354.875 C 542.402344 354.875 579.847656 364.046875 611.945312 377.089844 C 612.539062 382.417969 612.871094 387.832031 612.871094 393.308594 C 612.871094 411.039062 609.679688 428.035156 603.847656 443.761719 C 591.34375 436.347656 571.167969 427.863281 546.855469 430.40625 C 555 373.253906 543.167969 355.925781 542.402344 354.875 Z M 265.015625 432.476562 C 239.085938 429.753906 217.566406 438.804688 204.242188 446.714844 C 198.019531 429.941406 194.621094 411.816406 194.621094 392.90625 C 194.621094 387.070312 194.96875 381.292969 195.605469 375.613281 C 229.828125 361.703125 269.757812 351.929688 269.757812 351.929688 C 268.945312 353.042969 256.332031 371.53125 265.015625 432.476562 Z M 430.46875 616.28125 C 438.40625 615.375 446.238281 614.078125 453.910156 612.386719 C 453.933594 591.859375 454.765625 559.875 458.550781 522.808594 C 437.234375 525.507812 419.4375 526.640625 404.917969 526.902344 C 390.390625 526.640625 372.601562 525.507812 351.277344 522.808594 C 355.058594 559.875 355.894531 591.859375 355.910156 612.386719 C 363.601562 614.078125 371.433594 615.375 379.382812 616.28125 C 290.683594 606.339844 217.269531 545.289062 189.292969 463.335938 C 189.914062 465.179688 190.519531 467.019531 191.1875 468.835938 C 210.742188 457.246094 242.3125 443.957031 280.335938 447.945312 C 267.597656 358.546875 286.113281 331.433594 287.296875 329.804688 C 287.296875 329.804688 228.726562 344.136719 178.523438 364.542969 C 191.191406 250.816406 287.867188 162.085938 404.910156 162.085938 C 526.140625 162.085938 625.519531 257.261719 632.339844 376.804688 C 632.089844 372.695312 631.75 368.597656 631.296875 364.542969 C 581.097656 344.136719 522.523438 329.804688 522.523438 329.804688 C 523.714844 331.433594 542.226562 358.546875 529.484375 447.945312 C 567.515625 443.957031 599.082031 457.246094 618.636719 468.835938 C 619.308594 467.019531 619.910156 465.179688 620.542969 463.335938 C 592.558594 545.277344 519.15625 606.335938 430.46875 616.28125 Z M 371 599.425781 C 370.984375 585.21875 370.410156 563.078125 367.792969 537.421875 C 382.550781 539.304688 394.859375 540.078125 404.917969 540.261719 C 414.964844 540.078125 427.285156 539.304688 442.035156 537.421875 C 439.417969 563.078125 438.84375 585.21875 438.832031 599.425781 C 427.898438 601.828125 416.554688 603.132812 404.910156 603.132812 C 393.265625 603.132812 381.929688 601.828125 371 599.425781 Z M 404.910156 126.28125 C 259.316406 126.28125 141.28125 244.316406 141.28125 389.917969 C 141.28125 535.515625 259.316406 653.554688 404.910156 653.554688 C 550.515625 653.554688 668.546875 535.515625 668.546875 389.917969 C 668.546875 244.316406 550.515625 126.28125 404.910156 126.28125 " fill-opacity="1" fill-rule="nonzero"/></g><path fill="#131112" d="M 404.910156 455.59375 C 371.078125 455.59375 343.652344 428.179688 343.652344 394.339844 C 343.652344 360.5 371.078125 333.074219 404.910156 333.074219 C 438.746094 333.074219 466.175781 360.5 466.175781 394.339844 C 466.175781 428.179688 438.746094 455.59375 404.910156 455.59375 Z M 404.917969 310.59375 C 364.289062 310.59375 326.496094 316.839844 294.824219 327.566406 C 293.632812 329.195312 275.121094 356.308594 287.855469 445.703125 C 287.855469 445.703125 341.632812 462.164062 350.65625 516.527344 C 367.921875 519.019531 386.109375 520.382812 404.917969 520.382812 C 423.71875 520.382812 441.898438 519.019531 459.167969 516.527344 C 468.191406 462.164062 521.96875 445.703125 521.96875 445.703125 C 534.703125 356.308594 516.191406 329.195312 515.007812 327.566406 C 483.332031 316.839844 445.535156 310.59375 404.917969 310.59375 " fill-opacity="1" fill-rule="nonzero"/><path fill="#131112" d="M 404.910156 340.941406 C 375.425781 340.941406 351.519531 364.847656 351.519531 394.339844 C 351.519531 423.820312 375.425781 447.738281 404.910156 447.738281 C 434.40625 447.738281 458.308594 423.820312 458.308594 394.339844 C 458.308594 364.847656 434.40625 340.941406 404.910156 340.941406 " fill-opacity="1" fill-rule="nonzero"/></svg>