<svg xmlns="http://www.w3.org/2000/svg" xmlns:xlink="http://www.w3.org/1999/xlink" width="1080" zoomAndPan="magnify" viewBox="0 0 810 809.999993" height="1080" preserveAspectRatio="xMidYMid meet" version="1.0"><defs><clipPath id="adb1e2664d"><path d="M 235 509 L 575 509 L 575 648.8125 L 235 648.8125 Z M 235 509 " clip-rule="nonzero"/></clipPath></defs><path fill="#000000" d="M 465.003906 332.441406 C 443.757812 319.832031 420.269531 311.46875 395.828125 307.800781 C 414.566406 334.222656 436.527344 358.210938 461.203125 379.210938 C 504.433594 416.390625 523.113281 462.988281 516.03125 512.699219 C 513.1875 512.105469 510.28125 511.816406 507.375 511.828125 C 486.988281 511.828125 323.867188 511.828125 303.46875 511.828125 C 302.667969 511.753906 301.859375 511.753906 301.046875 511.828125 C 301.046875 511.4375 301.046875 508.328125 301.046875 507.941406 C 301.046875 485.296875 294.484375 473.363281 283.761719 452.703125 C 251.375 393.128906 247.066406 322.277344 271.992188 259.21875 C 291.191406 211.84375 335.988281 148.554688 440.707031 115.878906 C 444.15625 114.789062 447.921875 115.960938 450.136719 118.820312 C 452.328125 121.6875 452.496094 125.621094 450.558594 128.671875 C 438.71875 147.867188 438.453125 159.617188 449.347656 171.902344 C 483.296875 204.183594 513.066406 240.566406 537.992188 280.230469 C 550.882812 300.769531 544.917969 327.855469 524.589844 341.085938 C 505.65625 354.773438 479.265625 350.949219 465.003906 332.441406 Z M 435.609375 212.535156 C 432.386719 209 426.929688 208.734375 423.394531 211.953125 C 419.859375 215.160156 419.59375 220.632812 422.8125 224.167969 C 423.199219 224.589844 423.636719 224.988281 424.109375 225.328125 C 424.96875 226.089844 431.890625 232.179688 432.75 232.941406 C 436.3125 236.101562 441.769531 235.796875 444.941406 232.238281 C 448.054688 228.691406 447.75 223.308594 444.253906 220.136719 C 444.253906 220.125 436.46875 213.285156 435.609375 212.535156 Z M 435.609375 212.535156 " fill-opacity="1" fill-rule="nonzero"/><g clip-path="url(#adb1e2664d)"><path fill="#000000" d="M 273.722656 565.058594 C 273.722656 549.503906 273.722656 540.851562 273.722656 539.121094 C 273.722656 522.828125 286.917969 509.601562 303.214844 509.5625 C 323.613281 509.5625 486.804688 509.5625 507.207031 509.5625 C 523.5 509.601562 536.695312 522.828125 536.695312 539.121094 C 536.695312 540.851562 536.695312 549.503906 536.695312 565.058594 C 541.878906 565.058594 544.757812 565.058594 545.339844 565.058594 C 561.683594 565.058594 574.953125 578.285156 575 594.625 C 575 599.175781 575 635.558594 575 640.097656 C 575 644.878906 571.125 648.75 566.355469 648.75 C 534.09375 648.75 276.058594 648.75 243.808594 648.75 C 239.027344 648.75 235.164062 644.878906 235.164062 640.097656 C 235.164062 635.558594 235.164062 599.175781 235.164062 594.625 C 235.214844 578.25 248.53125 565.007812 264.910156 565.058594 C 264.957031 565.058594 265.019531 565.058594 265.078125 565.058594 C 266.230469 565.058594 269.113281 565.058594 273.722656 565.058594 Z M 273.722656 565.058594 " fill-opacity="1" fill-rule="nonzero"/></g></svg>