<svg xmlns="http://www.w3.org/2000/svg" xmlns:xlink="http://www.w3.org/1999/xlink" width="1080" zoomAndPan="magnify" viewBox="0 0 810 809.999993" height="1080" preserveAspectRatio="xMidYMid meet" version="1.0"><defs><clipPath id="87953ef082"><path d="M 140 107.324219 L 629.683594 107.324219 L 629.683594 646 L 140 646 Z M 140 107.324219 " clip-rule="nonzero"/></clipPath></defs><g clip-path="url(#87953ef082)"><path fill="#000000" d="M 569.332031 121.324219 C 495.957031 137.4375 322.683594 176.015625 315.6875 177.640625 C 306.738281 179.757812 287.539062 181.550781 287.539062 205.964844 L 287.539062 530.53125 C 267.363281 519.136719 236.617188 517.671875 205.867188 528.742188 C 160.308594 545.179688 132.164062 582.78125 143.0625 612.894531 C 153.964844 643.007812 199.683594 654.074219 245.074219 637.636719 C 287.378906 622.335938 314.710938 588.804688 309.667969 559.992188 L 309.667969 314.535156 C 309.667969 301.023438 309.339844 283.605469 344.484375 276.121094 C 360.589844 272.699219 579.746094 223.871094 579.746094 223.871094 L 579.746094 450.773438 C 559.570312 439.054688 528.496094 437.425781 497.417969 448.65625 C 451.863281 465.097656 423.71875 502.699219 434.617188 532.808594 C 445.519531 562.921875 491.238281 573.992188 536.628906 557.550781 C 578.605469 542.414062 605.613281 509.371094 601.382812 480.722656 L 601.871094 480.722656 L 601.871094 168.363281 C 601.871094 129.625 629.203125 128.648438 629.203125 128.648438 L 629.203125 107.324219 Z M 569.332031 121.324219 " fill-opacity="1" fill-rule="nonzero"/></g></svg>